<svg width="32" height="32" viewBox="0 0 32 32" fill="none" xmlns="http://www.w3.org/2000/svg">
<path d="M5.88948 15.8911L10.3181 13.1954C11.0613 12.7438 11.4329 12.518 11.6894 12.2082C12.7995 10.8678 11.8219 8.88795 11.9874 7.32916C12.1588 5.71563 13.6975 3.50879 15.2485 2.82462C15.7259 2.61404 16.2735 2.61404 16.7508 2.82462C18.3019 3.50879 19.8405 5.71563 20.0119 7.32916C20.1775 8.88795 19.1999 10.8678 20.31 12.2082C20.5664 12.518 20.938 12.7438 21.6812 13.1954L26.1103 15.8909C27.4657 16.7159 27.9997 17.5964 27.9997 19.2527C27.9997 20.1542 27.6008 20.3958 26.7964 20.2118L19.03 18.4348L18.6812 21.4866C18.5548 22.5931 18.4916 23.1464 18.6744 23.6531C19.1027 24.84 20.5564 25.8122 21.4443 26.6755C21.9351 27.1526 22.4705 28.5246 21.9111 29.1484C21.5656 29.5338 21.0044 29.221 20.6183 29.0707L16.9 27.6246C16.4555 27.4516 16.2331 27.3652 15.9997 27.3652C15.7663 27.3652 15.5439 27.4516 15.0993 27.6246L11.3811 29.0707C10.9949 29.221 10.4338 29.5338 10.0883 29.1484C9.52879 28.5246 10.0643 27.1526 10.555 26.6755C11.4429 25.8122 12.8967 24.84 13.3249 23.6531C13.5077 23.1464 13.4445 22.5931 13.3181 21.4866L12.9694 18.4348L5.20344 20.2116C4.39868 20.3958 3.99975 20.154 4 19.2522C4.00044 17.5962 4.53425 16.716 5.88948 15.8911Z" stroke="#08c7a2" stroke-width="1.5" stroke-linecap="round" stroke-linejoin="round"/>
</svg>

