<svg width="32" height="32" viewBox="0 0 32 32" fill="none" xmlns="http://www.w3.org/2000/svg">
<path d="M18.6665 8.02036C18.9916 5.74732 20.9465 4 23.3094 4C25.8998 4 27.9998 6.09997 27.9998 8.69041C27.9998 11.0534 26.2525 13.0082 23.9794 13.3333" stroke="#444C61" stroke-width="1.5" stroke-linecap="round" stroke-linejoin="round"/>
<path d="M13.3333 8.02036C13.0082 5.74732 11.0534 4 8.69041 4C6.09997 4 4 6.09997 4 8.69041C4 11.0534 5.74732 13.0082 8.02036 13.3333" stroke="#444C61" stroke-width="1.5" stroke-linecap="round" stroke-linejoin="round"/>
<path d="M18.6665 23.9796C18.9916 26.2527 20.9465 28 23.3094 28C25.8998 28 27.9998 25.9 27.9998 23.3096C27.9998 20.9467 26.2525 18.9918 23.9794 18.6667" stroke="#444C61" stroke-width="1.5" stroke-linecap="round" stroke-linejoin="round"/>
<path d="M13.3333 23.9796C13.0082 26.2527 11.0534 28 8.69041 28C6.09997 28 4 25.9 4 23.3096C4 20.9467 5.74732 18.9918 8.02036 18.6667" stroke="#444C61" stroke-width="1.5" stroke-linecap="round" stroke-linejoin="round"/>
<path d="M13.6461 19.7971C14.1363 20 14.7575 20 16 20C17.2425 20 17.8637 20 18.3539 19.7971C19.0072 19.5264 19.5264 19.0072 19.7971 18.3539C20 17.8637 20 17.2425 20 16C20 14.7575 20 14.1363 19.7971 13.6461C19.5264 12.9928 19.0072 12.4736 18.3539 12.203C17.8637 12 17.2425 12 16 12C14.7575 12 14.1363 12 13.6461 12.203C12.9928 12.4736 12.4736 12.9928 12.203 13.6461C12 14.1363 12 14.7575 12 16C12 17.2425 12 17.8637 12.203 18.3539C12.4736 19.0072 12.9928 19.5264 13.6461 19.7971Z" stroke="#444C61" stroke-width="1.5" stroke-linecap="round" stroke-linejoin="round"/>
<path d="M19.3335 19.3333L22.6668 22.6666M12.6668 19.3333L9.3335 22.6666M19.3335 12.6666L22.6668 9.33331M12.6668 12.6666L9.3335 9.33331" stroke="#444C61" stroke-width="1.5" stroke-linecap="round" stroke-linejoin="round"/>
</svg>
