<svg width="351" height="71" viewBox="0 0 351 71" fill="none" xmlns="http://www.w3.org/2000/svg">
<path d="M163.108 10.7581C159.494 10.7581 156.243 11.3928 153.357 12.6625C150.47 13.9329 148.035 15.6834 146.052 17.9163C144.069 20.1493 142.548 22.766 141.491 25.7646C140.433 28.764 139.905 32.0153 139.905 35.5173C139.905 38.933 140.433 42.1173 141.491 45.0728C142.548 48.0276 144.069 50.6006 146.052 52.7896C148.035 54.9796 150.47 56.6971 153.357 57.9452C156.243 59.1923 159.494 59.8172 163.108 59.8172C166.017 59.8172 168.683 59.3789 171.108 58.5038C173.53 57.6281 175.645 56.3583 177.453 54.694C179.26 53.0307 180.714 51.0154 181.817 48.6519C182.918 46.2873 183.601 43.6391 183.866 40.7054H173.817C173.421 43.8579 172.33 46.3979 170.546 48.324C168.76 50.2512 166.281 51.214 163.108 51.214C160.771 51.214 158.789 50.7648 157.159 49.8672C155.527 48.9703 154.205 47.777 153.192 46.2881C152.178 44.8003 151.439 43.1257 150.977 41.2639C150.514 39.4032 150.283 37.4877 150.283 35.5173C150.283 33.4606 150.514 31.4682 150.977 29.541C151.439 27.6149 152.178 25.8958 153.192 24.3854C154.205 22.875 155.527 21.6711 157.159 20.7729C158.789 19.8763 160.771 19.427 163.108 19.427C164.386 19.427 165.609 19.635 166.777 20.0504C167.944 20.4674 168.992 21.0477 169.917 21.7918C170.843 22.5366 171.614 23.3998 172.231 24.3854C172.848 25.3702 173.244 26.4548 173.42 27.6366H183.468C183.16 24.9225 182.411 22.5137 181.221 20.4116C180.032 18.3101 178.522 16.5487 176.693 15.1254C174.863 13.7032 172.792 12.6199 170.479 11.8752C168.165 11.1312 165.708 10.7581 163.108 10.7581ZM102.494 11.8752V58.7659H138.325V50.0969H112.873V38.6037H135.747V30.5914H112.873V20.5432H137.795V11.8752H102.494ZM188.003 11.8752V58.7659H197.722V25.8628H197.854L209.422 58.7659H217.422L228.991 25.5349H229.123V58.7659H238.84V11.8752H224.231L213.786 44.1206H213.654L202.614 11.8752H188.003ZM240.969 11.8752L253.463 58.7659H263.974L271.841 26.8484H271.973L279.972 58.7659H290.284L302.977 11.8752H292.797L285.062 44.1863H284.93L276.865 11.8752H267.147L258.95 43.7917H258.817L251.347 11.8752H240.969ZM305.105 11.8752V58.7659H315.485V39.3919H335.25V31.3797H315.485V20.5432H338.291V11.8752H305.105Z" fill="#444C61"/>
<path d="M41.643 7.31535C28.4895 7.31535 17.0213 16.6765 14.6729 29.6166L31.6006 29.649C33.4609 25.4611 37.7416 22.7597 42.3376 22.7597C47.2744 22.7597 51.8666 26.0854 53.5272 30.6748C55.1193 25.978 59.7104 22.7597 64.7148 22.7597C69.4133 22.7597 73.7694 25.4613 75.6297 29.6813L91.7224 29.7226C89.3419 16.8472 77.8733 7.31531 64.7148 7.31531C60.8835 7.31531 56.8097 8.27534 53.3553 9.78711C49.7268 8.06987 45.722 7.31535 41.643 7.31535ZM14.4338 31.8989C14.0536 33.9923 14.0873 36.1187 14.4338 38.1462H37.643V31.8989H14.4338ZM53.5272 39.3546C51.8666 43.9513 47.2744 47.2854 42.3376 47.2854C37.7416 47.2854 33.4609 44.5772 31.6006 40.3883L14.6729 40.4217C17.0213 53.3538 28.4895 62.7219 41.643 62.7219C45.722 62.7219 49.7268 61.9677 53.3553 60.2845C56.8097 61.7622 60.8835 62.7219 64.7148 62.7219C77.8733 62.7219 89.3419 53.1814 91.7224 40.3147L75.6297 40.3559C73.7694 44.577 69.4133 47.2854 64.7148 47.2854C59.7104 47.2854 55.1193 44.0599 53.5272 39.3546Z" fill="#444C61"/>
</svg>
