<svg width="169" height="62" viewBox="0 0 169 62" fill="none" xmlns="http://www.w3.org/2000/svg">
<g clip-path="url(#clip0_1_1321)">
<path d="M39.8442 28.208H52.2148C52.2148 28.208 52.7042 26.3284 50.5011 23.5103C46.1494 18.9649 41.2612 21.9794 41.2612 21.9794C38.8643 23.2642 35.786 28.6028 37.5919 36.2637C39.8442 43.9262 48.4977 45.503 53.8745 43.7242C57.4333 42.5475 59.4851 39.9532 60.4725 38.3259C60.79 37.0093 61.0166 35.6928 61.1594 34.384H39.8442V28.208Z" fill="#444C61"/>
<path d="M29.0312 0.0451783C15.9773 0.747005 4.33111 9.87872 0.948898 23.3597C-3.21535 39.9531 6.71461 56.8309 23.1295 61.0408C34.7922 64.0312 46.6187 59.8314 53.9659 51.198C50.7353 51.9786 46.9545 52.0307 42.851 50.6015C29.1089 45.8051 26.5906 32.951 30.0148 23.9563C33.4345 14.9609 45.4084 10.7681 53.72 16.7978C60.8438 21.9621 61.2351 31.163 61.1955 33.6997C62.5065 18.8142 53.0196 4.73589 38.228 0.93998C35.1502 0.151059 32.0436 -0.116777 29.0312 0.0451783ZM14.0802 27.3863C16.2595 27.3863 18.0147 29.1618 18.0147 31.3632C18.0147 33.566 16.2595 35.3401 14.0802 35.3401C11.9024 35.3401 10.0965 33.566 10.0965 31.3632C10.0966 29.1618 11.9024 27.3863 14.0802 27.3863Z" fill="#444C61"/>
<path d="M152.869 14.0139C150.428 14.111 147.934 14.5172 145.885 15.3064C141.591 17.0821 139.442 21.306 139.442 25.7458H147.213C147.017 23.4777 148.702 21.4161 150.262 20.8243C150.947 20.5306 151.891 20.3272 152.869 20.3272C154.819 20.23 156.814 20.7343 158.18 22.0174C159.06 22.9037 159.308 24.0655 159.016 25.3481C158.526 27.4196 156.284 28.1333 152.869 28.629C151.697 28.8247 150.345 28.9297 148.885 29.1261C144.788 29.6194 138.937 31.6622 137.573 37.6764C137.085 40.0455 137.457 44.4123 141.065 47.2707C143.505 49.1465 146.94 50.0064 149.573 49.9054C150.745 49.9054 151.94 49.8052 152.918 49.6071C155.646 49.0168 157.758 47.7515 159.803 46.0776C159.901 46.5709 160.397 48.4179 160.787 48.9112H169C167.734 46.3479 167.918 42.6297 167.918 40.5597V29.9215C167.822 27.1601 167.815 24.3835 167.229 21.8186C166.641 19.2531 164.42 15.0028 157.196 14.1133C155.832 14.0163 154.331 14.0139 152.869 14.0139ZM159.508 31.7608C159.508 32.55 159.602 38.1797 159.115 39.2672C158.235 41.6323 155.794 43.0025 152.869 43.2938C152.286 43.3909 151.628 43.4903 150.951 43.3932C148.999 43.3932 147.356 42.437 146.672 40.9574C145.89 39.4776 146.378 37.9693 146.868 37.0799C148.039 35.0099 150.084 34.6379 152.918 34.0475C153.792 33.9505 154.749 33.7463 155.819 33.451C157.967 32.9579 158.434 32.55 159.508 31.7608Z" fill="#444C61"/>
<path d="M95.7977 18.8537C92.3818 15.0059 87.1118 13.3272 81.7457 14.1164C76.8668 14.9064 73.3543 17.6684 70.9144 21.6135C69.6449 23.8823 68.7681 26.4472 68.3762 28.9133C67.5954 34.9315 69.2546 44.9902 79.6978 48.936C84.5744 50.8118 90.7242 50.1205 95.4072 46.6679C98.0415 44.695 100.68 40.256 100.872 37.4946H92.1882C91.8939 38.6791 91.2123 40.256 89.6501 41.4405C86.1358 44.0037 82.1352 42.3299 80.3787 41.0444C77.7451 39.0715 76.8668 35.817 76.7692 31.1813C76.7692 28.7168 77.4516 24.7717 79.5019 22.8958C81.7457 21.0209 84.4782 20.53 87.1118 21.3176C89.9444 22.2062 92.0899 25.3621 91.8939 28.2213H79.5995V34.4382H100.872C101.068 32.1678 100.68 29.9992 100.288 27.9268C99.6053 24.8704 97.751 21.1203 95.7977 18.8537Z" fill="#444C61"/>
<path d="M120.976 28.0262C118.34 27.5331 115.317 27.4337 113.757 25.6604C113.073 24.8704 113.073 23.4894 113.463 22.6994C114.537 20.53 117.173 19.8386 119.708 20.0344C121.952 20.0344 124.003 21.2198 124.88 23.1927C125.272 23.9825 125.37 24.8703 125.466 25.7574H132.685C132.784 22.8958 131.613 19.9372 129.857 18.0623C127.612 15.6963 122.342 13.2302 115.807 14.2166C112.29 14.7084 107.608 16.7821 106.044 21.4154C104.677 25.7574 106.044 29.7009 108.679 31.7733C111.998 34.3411 118.244 35.0285 120.782 35.6227C123.71 36.2131 125.172 36.6092 125.66 38.2831C125.954 39.3705 125.856 40.6521 125.172 41.5415C123.318 44.0037 119.512 44.2018 116.489 43.3125C113.951 42.5279 112.877 40.454 112.389 37.6889H104.777C104.777 40.256 105.557 42.0346 106.828 44.1047C108.485 46.7689 111.413 48.936 115.707 49.6273C120.39 50.4196 125.172 49.8254 128.004 48.2486C129.661 47.2582 130.932 45.9805 132.005 44.5979C133.566 42.625 134.933 37.6889 132.492 33.3509C130.346 29.603 125.466 28.8154 120.976 28.0262Z" fill="#444C61"/>
</g>
<defs>
<clipPath id="clip0_1_1321">
<rect width="169" height="62" fill="white"/>
</clipPath>
</defs>
</svg>
