<svg width="165" height="40" viewBox="0 0 165 40" fill="none" xmlns="http://www.w3.org/2000/svg">
<g clip-path="url(#clip0_1_1096)">
<path d="M17.1189 0.256836C18.4174 0.0802796 19.6139 0.99457 19.7898 2.29883C19.9657 3.60314 19.0551 4.80473 17.7566 4.98145C17.1969 5.05716 16.6078 5.17918 16.0076 5.3418C13.5738 6.00239 11.5428 7.03788 9.9734 8.41797C8.33282 9.86114 7.00658 11.6975 6.03199 13.877C4.21833 17.933 4.33037 22.6117 6.33961 26.7168C8.33218 30.7882 12.1298 33.8286 16.4988 34.8496C20.7966 35.8538 25.456 34.8683 28.9607 32.2119C32.1596 29.7884 34.3047 26.1024 34.8464 22.0996C35.0224 20.7953 36.2188 19.8809 37.5173 20.0576C38.8157 20.2344 39.7263 21.436 39.5505 22.7402C38.8398 27.9955 36.0215 32.8348 31.8201 36.0186C28.3922 38.6145 24.1293 40 19.8484 40C18.3642 40 16.8785 39.8335 15.4236 39.4941C9.68204 38.1519 4.69278 34.1615 2.07887 28.8193C-0.554501 23.4366 -0.692574 17.278 1.70192 11.9219C2.95858 9.11265 4.69017 6.72671 6.84742 4.8291C8.96555 2.96661 11.631 1.5906 14.7683 0.739258C15.5656 0.523269 16.3579 0.360623 17.1189 0.256836ZM16.8308 8.92969C18.0944 8.57768 19.4032 9.31965 19.7537 10.5889C20.1041 11.8582 19.365 13.1724 18.1013 13.5244C16.1871 14.0588 14.5663 15.4769 13.7634 17.3184C13.0429 18.9733 13.0541 20.9089 13.7927 22.627C14.5412 24.3646 15.9542 25.7143 17.6716 26.3271C19.389 26.9413 21.2589 26.7975 22.9343 25.9238C24.6069 25.0515 25.847 23.54 26.3357 21.7744C26.6876 20.5051 27.9959 19.7628 29.2595 20.1162C30.5231 20.4697 31.2617 21.784 30.9099 23.0518C30.0693 26.0882 27.9595 28.6776 25.1208 30.1572C23.4606 31.0226 21.6326 31.4619 19.8132 31.4619C18.5455 31.4619 17.2819 31.2484 16.0798 30.8193C13.1267 29.7632 10.7055 27.4667 9.43629 24.5186C8.17552 21.5901 8.16696 18.2687 9.41383 15.4062C10.7823 12.2648 13.5552 9.84409 16.8308 8.92969ZM30.7302 8.52344C31.0274 8.52367 31.2683 8.76589 31.2683 9.06445V16.6016C31.2683 16.9002 31.0274 17.1423 30.7302 17.1426H24.5027C23.8368 17.1426 23.1968 17.4093 22.7263 17.8818C22.6091 17.9996 22.5046 18.1292 22.4138 18.2666C22.538 18.4502 22.6426 18.6466 22.7263 18.8555C22.7277 18.8596 22.7308 18.865 22.7322 18.8691C22.7852 19.0009 22.8286 19.1387 22.8621 19.2803C22.8648 19.2914 22.8671 19.3042 22.8699 19.3154C22.8852 19.3827 22.8997 19.4514 22.9109 19.5215V19.5244C22.9207 19.5917 22.9287 19.6623 22.9343 19.7324C22.9357 19.749 22.9382 19.7656 22.9382 19.7822C22.9438 19.8508 22.947 19.9212 22.947 19.9912V19.9941C22.947 21.0502 22.4135 21.9834 21.6023 22.5332C21.5381 22.5767 21.472 22.6174 21.405 22.6553C21.3661 22.6776 21.3272 22.6988 21.2869 22.7197C20.8694 22.9343 20.3971 23.0557 19.8972 23.0557C19.5817 23.0557 19.2772 23.0087 18.991 22.9189C18.8485 22.8741 18.7086 22.8194 18.5759 22.7549C18.5132 22.7241 18.4518 22.6903 18.3904 22.6553C18.2019 22.5473 18.0265 22.4189 17.866 22.2744C17.859 22.2674 17.8505 22.2619 17.8435 22.2549C17.5587 21.9927 17.3234 21.6791 17.1531 21.3271C17.1528 21.3269 17.1512 21.3239 17.1511 21.3213C17.1246 21.2666 17.1002 21.2114 17.0779 21.1553C17.0361 21.0544 17.0011 20.9507 16.9705 20.8457C16.9537 20.791 16.9401 20.7348 16.9275 20.6787C16.8772 20.4586 16.8494 20.2287 16.8494 19.9932C16.8494 18.3031 18.2133 16.9317 19.8972 16.9316C19.967 16.9316 20.0339 16.9343 20.1023 16.9385C20.1175 16.9399 20.133 16.9423 20.1482 16.9424C20.2138 16.948 20.2798 16.955 20.3455 16.9648C20.4165 16.9746 20.4877 16.9885 20.5574 17.0039C20.5602 17.0053 20.5649 17.0068 20.5691 17.0068C20.9251 17.0882 21.2575 17.2313 21.5535 17.4248C21.6943 17.3323 21.8267 17.2244 21.948 17.1025C22.42 16.6285 22.6843 15.9874 22.6843 15.3184V9.06445C22.6844 8.76574 22.926 8.52344 23.2234 8.52344H30.7302ZM39.9997 16.9326H35.1267V4.89453H22.6853V0H39.9997V16.9326Z" fill="#0ACDA6"/>
</g>
<path d="M160.72 28.82V11.3H164.128V28.82H160.72Z" fill="#0ACDA6"/>
<path d="M160.72 28.82V11.3H164.128V28.82H160.72Z" fill="#12AC90" fill-opacity="0.2"/>
<path d="M140.381 28.82L146.357 11.3H151.925L158.069 28.82H154.565L149.357 13.628L150.581 14.156H147.581L148.829 13.628L143.789 28.82H140.381ZM144.557 24.164L145.637 21.284H152.741L153.797 24.164H144.557Z" fill="#0ACDA6"/>
<path d="M140.381 28.82L146.357 11.3H151.925L158.069 28.82H154.565L149.357 13.628L150.581 14.156H147.581L148.829 13.628L143.789 28.82H140.381ZM144.557 24.164L145.637 21.284H152.741L153.797 24.164H144.557Z" fill="#12AC90" fill-opacity="0.2"/>
<path d="M117.924 28.82L124.092 19.484L124.116 19.892L118.452 11.3H122.244L126.036 17.18H126.54L130.308 11.3H133.956L128.22 19.964L128.172 19.556L134.484 28.82H130.716L126.3 22.244H125.796L121.572 28.82H117.924Z" fill="#111927"/>
<path d="M112.04 28.82V11.3H115.448V28.82H112.04Z" fill="#111927"/>
<path d="M99.1233 23.4441V20.4921H102.531C103.219 20.4921 103.795 20.3561 104.259 20.0841C104.739 19.8121 105.099 19.4361 105.339 18.9561C105.595 18.4761 105.723 17.9241 105.723 17.3001C105.723 16.6761 105.595 16.1241 105.339 15.6441C105.099 15.1641 104.739 14.7961 104.259 14.5401C103.795 14.2681 103.219 14.1321 102.531 14.1321H99.1233V11.1801H102.243C103.715 11.1801 104.963 11.4201 105.987 11.9001C107.027 12.3801 107.819 13.0681 108.363 13.9641C108.907 14.8441 109.179 15.8921 109.179 17.1081V17.4921C109.179 18.7081 108.907 19.7641 108.363 20.6601C107.819 21.5401 107.027 22.2281 105.987 22.7241C104.963 23.2041 103.715 23.4441 102.243 23.4441H99.1233ZM96.1953 28.8201V11.1801H99.6033V28.8201H96.1953Z" fill="#111927"/>
<path d="M83.8288 22.124L78.5488 11.3H82.0528L86.0848 19.772L85.3168 19.532H87.5968L86.7808 19.772L90.4528 11.3H93.7648L88.8928 22.124H83.8288ZM84.6928 28.82V21.596H88.0288V28.82H84.6928Z" fill="#111927"/>
<path d="M69.4297 28.82V11.3H72.8377V28.82H69.4297ZM72.3577 28.82V25.82H79.9177V28.82H72.3577Z" fill="#111927"/>
<path d="M56 28.82V11.3H59.408V28.82H56ZM58.928 21.524V18.644L65.936 18.62V21.5L58.928 21.524ZM58.928 14.18V11.3H66.272V14.18H58.928Z" fill="#111927"/>
<defs>
<clipPath id="clip0_1_1096">
<rect width="40" height="40" fill="white"/>
</clipPath>
</defs>
</svg>
