<svg width="166" height="84" viewBox="0 0 166 84" fill="none" xmlns="http://www.w3.org/2000/svg">
<path d="M0.279297 20.8809C0.279297 9.34668 9.94419 1.90735e-05 21.4784 1.90735e-05C27.8421 1.90735e-05 32.3763 2.50572 35.7968 5.76711L31.7399 9.78418C29.3138 7.47735 26.0126 5.68756 21.4784 5.68756C13.0863 5.68756 6.52369 12.449 6.52369 20.8411C6.52369 29.2332 13.0863 35.9946 21.4784 35.9946C26.9274 35.9946 30.0297 33.8071 32.0183 31.8184C33.649 30.1877 34.7229 27.8411 35.1206 24.6593H21.4784V18.9718H40.6889C40.8878 20.0059 41.0071 21.199 41.0071 22.5513C41.0071 26.8468 39.8537 32.1366 36.0752 35.8753C32.3763 39.6935 27.6831 41.7219 21.4784 41.7219C9.94419 41.7219 0.279297 32.3753 0.279297 20.8809Z" fill="#444C61"/>
<path d="M56.4773 14.8749C49.0397 14.8749 42.9941 20.5227 42.9941 28.3182C42.9941 36.0739 49.0397 41.7615 56.4773 41.7615C63.9149 41.7615 69.9604 36.0739 69.9604 28.3182C69.9604 20.5227 63.9149 14.8749 56.4773 14.8749ZM56.4773 36.4319C52.4204 36.4319 48.8806 33.091 48.8806 28.2784C48.8806 23.4261 52.3806 20.1249 56.4773 20.1249C60.5341 20.1249 64.074 23.4261 64.074 28.2784C64.074 33.091 60.5341 36.4319 56.4773 36.4319Z" fill="#444C61"/>
<path d="M85.9099 14.8749C78.4723 14.8749 72.4268 20.5227 72.4268 28.3182C72.4268 36.0739 78.4723 41.7615 85.9099 41.7615C93.3475 41.7615 99.393 36.0739 99.393 28.3182C99.393 20.5227 93.3475 14.8749 85.9099 14.8749ZM85.9099 36.4319C81.853 36.4319 78.3132 33.091 78.3132 28.2784C78.3132 23.4261 81.8132 20.1249 85.9099 20.1249C90.0065 20.1249 93.5066 23.4261 93.5066 28.2784C93.5066 33.091 89.9667 36.4319 85.9099 36.4319Z" fill="#444C61"/>
<path d="M122.024 15.6707V17.8582H121.826C120.513 16.2673 117.968 14.8354 114.746 14.8354C108.024 14.8354 101.859 20.7218 101.859 28.3185C101.859 35.8356 108.024 41.722 114.746 41.722C117.968 41.722 120.513 40.2902 121.826 38.6595H122.024V40.6083C122.024 45.7391 119.28 48.4834 114.865 48.4834C111.246 48.4834 109.019 45.8982 108.104 43.7106L102.973 45.8584C104.445 49.438 108.382 53.813 114.905 53.813C121.826 53.813 127.672 49.7561 127.672 39.8129V15.6707H122.024ZM115.263 36.4322C111.206 36.4322 107.786 33.0117 107.786 28.3185C107.786 23.5855 111.206 20.1252 115.263 20.1252C119.28 20.1252 122.422 23.5855 122.422 28.3185C122.462 33.0515 119.28 36.4322 115.263 36.4322Z" fill="#444C61"/>
<path d="M137.615 40.9261H131.729V1.43153H137.615V40.9261Z" fill="#444C61"/>
<path d="M153.803 36.4319C150.78 36.4319 148.672 35.0398 147.28 32.375L165.257 24.9375L164.661 23.4261C163.547 20.4034 160.126 14.8749 153.166 14.8749C146.246 14.8749 140.479 20.3238 140.479 28.3182C140.479 35.8353 146.166 41.7615 153.803 41.7615C159.967 41.7615 163.507 37.983 165.019 35.7955L160.445 32.733C158.894 34.9603 156.825 36.4319 153.803 36.4319ZM153.365 20.0454C155.712 20.0454 157.7 21.1988 158.337 22.9091L146.325 27.8807C146.166 22.7102 150.342 20.0454 153.365 20.0454Z" fill="#444C61"/>
<path d="M6.14374 61.1744C6.93751 61.1744 7.58839 61.3094 8.0964 61.5793L7.50108 63.5081C7.12007 63.3176 6.69144 63.2223 6.21518 63.2223C5.67542 63.2223 5.23091 63.4129 4.88165 63.7939C4.54827 64.159 4.38158 64.6511 4.38158 65.2703V66.7467H7.42964V68.747H4.38158V78.415H2.19079V68.747H0V66.7467H2.19079V65.0559C2.19079 63.8971 2.55592 62.9604 3.28619 62.246C4.03233 61.5316 4.98484 61.1744 6.14374 61.1744Z" fill="#444C61"/>
<path d="M8.1416 72.5808C8.1416 70.7869 8.70517 69.3025 9.83232 68.1278C10.9753 66.953 12.4121 66.3656 14.1425 66.3656C15.8729 66.3656 17.3016 66.953 18.4288 68.1278C19.5718 69.3025 20.1433 70.7869 20.1433 72.5808C20.1433 74.3906 19.5718 75.8749 18.4288 77.0338C17.3016 78.2086 15.8729 78.796 14.1425 78.796C12.4121 78.796 10.9753 78.2086 9.83232 77.0338C8.70517 75.859 8.1416 74.3747 8.1416 72.5808ZM10.3324 72.5808C10.3324 73.8349 10.6975 74.8509 11.4278 75.6288C12.1581 76.4067 13.0629 76.7957 14.1425 76.7957C15.222 76.7957 16.1269 76.4067 16.8571 75.6288C17.5874 74.8509 17.9525 73.8349 17.9525 72.5808C17.9525 71.3425 17.5874 70.3344 16.8571 69.5565C16.111 68.7628 15.2061 68.3659 14.1425 68.3659C13.0788 68.3659 12.1739 68.7628 11.4278 69.5565C10.6975 70.3344 10.3324 71.3425 10.3324 72.5808Z" fill="#444C61"/>
<path d="M24.1146 78.4148H21.9238V66.7465H24.0194V68.6515H24.1146C24.3369 68.0324 24.7893 67.5085 25.472 67.0798C26.1705 66.6353 26.8531 66.4131 27.5199 66.4131C28.1549 66.4131 28.6946 66.5083 29.1392 66.6988L28.4724 68.8182C28.2025 68.7071 27.7739 68.6515 27.1865 68.6515C26.361 68.6515 25.6387 68.9849 25.0195 69.6516C24.4163 70.3184 24.1146 71.0963 24.1146 71.9853V78.4148Z" fill="#444C61"/>
<path d="M46.0385 73.8666C46.0385 75.3588 45.4908 76.5574 44.3954 77.4623C43.2841 78.3513 41.9347 78.7959 40.3472 78.7959C38.9343 78.7959 37.6881 78.3831 36.6085 77.5576C35.529 76.7321 34.7829 75.6049 34.3701 74.1761L36.4657 73.3189C36.6085 73.8269 36.807 74.2873 37.061 74.7C37.315 75.1128 37.6087 75.47 37.9421 75.7716C38.2913 76.0574 38.6723 76.2876 39.0851 76.4622C39.4978 76.6209 39.9344 76.7003 40.3948 76.7003C41.3949 76.7003 42.2125 76.4463 42.8475 75.9383C43.4825 75.4144 43.8 74.7238 43.8 73.8666C43.8 73.1522 43.5381 72.541 43.0142 72.033C42.5221 71.5408 41.6013 71.0646 40.2519 70.6042C38.8866 70.1121 38.0373 69.7787 37.7039 69.6041C35.8941 68.6833 34.9893 67.3259 34.9893 65.532C34.9893 64.2779 35.4893 63.2063 36.4895 62.3173C37.5055 61.4283 38.7517 60.9838 40.2281 60.9838C41.5299 60.9838 42.657 61.3172 43.6095 61.9839C44.5621 62.6348 45.1971 63.4524 45.5146 64.4366L43.4667 65.2939C43.2762 64.6589 42.8952 64.135 42.3236 63.7223C41.768 63.2936 41.0854 63.0793 40.2757 63.0793C39.4185 63.0793 38.6961 63.3174 38.1087 63.7937C37.5214 64.2382 37.2277 64.8176 37.2277 65.532C37.2277 66.1194 37.4579 66.6274 37.9182 67.0561C38.4263 67.4847 39.5296 67.9927 41.2283 68.5801C42.9587 69.1675 44.189 69.8898 44.9193 70.7471C45.6654 71.5885 46.0385 72.6283 46.0385 73.8666Z" fill="#444C61"/>
<path d="M52.3104 78.6055C51.3579 78.6055 50.5642 78.3118 49.9291 77.7244C49.31 77.137 48.9925 76.3194 48.9766 75.2717V68.7469H46.9287V66.7466H48.9766V63.1747H51.1674V66.7466H54.025V68.7469H51.1674V74.5573C51.1674 75.3352 51.3182 75.867 51.6199 76.1527C51.9215 76.4226 52.2628 76.5576 52.6438 76.5576C52.8184 76.5576 52.9851 76.5417 53.1439 76.5099C53.3185 76.4623 53.4773 76.4067 53.6201 76.3432L54.3107 78.2959C53.7392 78.5023 53.0724 78.6055 52.3104 78.6055Z" fill="#444C61"/>
<path d="M57.4712 74.843C57.4712 75.4145 57.7093 75.8908 58.1856 76.2718C58.6777 76.6528 59.2493 76.8433 59.9001 76.8433C60.8209 76.8433 61.6385 76.502 62.3529 75.8193C63.0831 75.1367 63.4483 74.335 63.4483 73.4142C62.7656 72.8745 61.8131 72.6046 60.5907 72.6046C59.7017 72.6046 58.9556 72.8189 58.3523 73.2475C57.7649 73.6762 57.4712 74.208 57.4712 74.843ZM60.305 66.3656C61.9242 66.3656 63.2022 66.8022 64.1388 67.6753C65.0755 68.5326 65.5438 69.7153 65.5438 71.2234V78.415H63.4483V76.7957H63.353C62.4481 78.1292 61.2416 78.796 59.7334 78.796C58.4475 78.796 57.368 78.415 56.4949 77.6529C55.6376 76.8909 55.209 75.9384 55.209 74.7954C55.209 73.5889 55.6614 72.6284 56.5663 71.914C57.4871 71.1996 58.7095 70.8424 60.2335 70.8424C61.5353 70.8424 62.6069 71.0806 63.4483 71.5568V71.0568C63.4483 70.2947 63.1466 69.6518 62.5434 69.1279C61.9401 68.5881 61.2337 68.3183 60.424 68.3183C59.2016 68.3183 58.2332 68.8342 57.5188 69.8661L55.59 68.6516C56.6536 67.1276 58.2253 66.3656 60.305 66.3656Z" fill="#444C61"/>
<path d="M81.6833 78.6055C80.7308 78.6055 79.937 78.3118 79.302 77.7244C78.6829 77.137 78.3653 76.3194 78.3495 75.2717V68.7469H76.3016V66.7466H78.3495V63.1747H80.5403V66.7466H83.3978V68.7469H80.5403V74.5573C80.5403 75.3352 80.6911 75.867 80.9927 76.1527C81.2943 76.4226 81.6357 76.5576 82.0167 76.5576C82.1913 76.5576 82.358 76.5417 82.5167 76.5099C82.6914 76.4623 82.8501 76.4067 82.993 76.3432L83.6836 78.2959C83.1121 78.5023 82.4453 78.6055 81.6833 78.6055ZM68.0146 66.7466H70.1102V68.6517H70.2054C70.8563 67.1594 72.1978 66.4132 74.2298 66.4132L74.6823 66.4609V68.7469L73.706 68.6517C72.6899 68.6517 71.8485 68.9692 71.1818 69.6042C70.5309 70.2233 70.2054 71.0171 70.2054 71.9855V78.415H68.0146V66.7466Z" fill="#444C61"/>
<path d="M95.743 78.4149H93.6475V76.7956H93.5522C93.2188 77.3672 92.7029 77.8434 92.0044 78.2244C91.3217 78.6054 90.6074 78.7959 89.8612 78.7959C88.4324 78.7959 87.3291 78.3911 86.5512 77.5815C85.7892 76.756 85.4082 75.5891 85.4082 74.081V66.7466H87.599V73.9381C87.6466 75.8431 88.6071 76.7956 90.4804 76.7956C91.3535 76.7956 92.0838 76.4464 92.6712 75.7479C93.2585 75.0335 93.5522 74.1842 93.5522 73.1999V66.7466H95.743V78.4149Z" fill="#444C61"/>
<path d="M104.147 76.7957C105.195 76.7957 106.076 76.3988 106.791 75.605C107.505 74.8271 107.862 73.8191 107.862 72.5808C107.862 71.3584 107.505 70.3503 106.791 69.5565C106.076 68.7628 105.195 68.3659 104.147 68.3659C103.084 68.3659 102.195 68.7628 101.48 69.5565C100.782 70.3503 100.432 71.3584 100.432 72.5808C100.432 73.8191 100.782 74.8351 101.48 75.6288C102.195 76.4067 103.084 76.7957 104.147 76.7957ZM104.504 78.796C103.647 78.796 102.861 78.6134 102.147 78.2483C101.448 77.8831 100.909 77.3989 100.528 76.7957H100.432L100.528 78.415V83.5586H98.3369V66.7466H100.432V68.3659H100.528C100.909 67.7626 101.448 67.2784 102.147 66.9133C102.861 66.5482 103.647 66.3656 104.504 66.3656C106.044 66.3656 107.346 66.9689 108.41 68.1754C109.505 69.3978 110.053 70.8662 110.053 72.5808C110.053 74.3112 109.505 75.7797 108.41 76.9862C107.346 78.1927 106.044 78.796 104.504 78.796Z" fill="#444C61"/>
<path d="M120.85 75.1764C120.85 76.1924 120.406 77.0497 119.517 77.7482C118.628 78.4467 117.508 78.796 116.159 78.796C114.984 78.796 113.952 78.4943 113.063 77.8911C112.174 77.2719 111.539 76.4623 111.158 75.4621L113.111 74.6287C113.397 75.3272 113.809 75.8749 114.349 76.2718C114.905 76.6528 115.508 76.8433 116.159 76.8433C116.857 76.8433 117.437 76.6925 117.897 76.3909C118.374 76.0892 118.612 75.732 118.612 75.3193C118.612 74.5731 118.04 74.0254 116.897 73.6762L114.897 73.1761C112.627 72.6046 111.492 71.5092 111.492 69.8899C111.492 68.8263 111.92 67.9769 112.777 67.3419C113.651 66.691 114.762 66.3656 116.111 66.3656C117.143 66.3656 118.072 66.6117 118.897 67.1038C119.739 67.5959 120.326 68.2548 120.66 69.0803L118.707 69.8899C118.485 69.3978 118.12 69.0168 117.612 68.7469C117.119 68.4611 116.564 68.3183 115.945 68.3183C115.373 68.3183 114.857 68.4611 114.397 68.7469C113.952 69.0327 113.73 69.3819 113.73 69.7947C113.73 70.4614 114.357 70.9377 115.611 71.2234L117.373 71.6759C119.691 72.2474 120.85 73.4142 120.85 75.1764Z" fill="#444C61"/>
</svg>
