<svg width="177" height="70" viewBox="0 0 177 70" fill="none" xmlns="http://www.w3.org/2000/svg">
<g clip-path="url(#clip0_1_1295)">
<path fill-rule="evenodd" clip-rule="evenodd" d="M153.343 65.3333H176.577V70H153.343V65.3333ZM97.582 65.3333H120.816V70H97.582V65.3333ZM138.938 65.3333L137.079 70L135.232 65.3333H138.938ZM86.8831 65.3333C83.5511 68.233 79.1537 70 74.2462 70H37.1629V65.3333H86.8831ZM-0.0111274 65.3333H32.5161V70H-0.0111274V65.3333ZM97.5707 56H120.804V60.6667H97.5707V56ZM142.565 56L140.763 60.6667H133.407L131.583 56H142.565ZM91.5299 56C91.1106 57.6537 90.4419 59.2282 89.5805 60.6667H37.1629V56H91.5299ZM-0.0111274 56H32.5161V60.6667H-0.0111274V56ZM153.332 56H176.565V60.6667H153.332V56ZM153.332 46.6667H167.272V51.3333H153.332V46.6667ZM106.864 46.6667H120.804V51.3333H106.864V46.6667ZM146.203 46.6667L144.378 51.3333H129.747L127.911 46.6667H146.203ZM90.8726 46.6667C91.2919 48.1505 91.5186 49.7136 91.5186 51.3333H74.3256V46.6667H90.8726ZM46.4564 46.6667H60.3967V51.3333H46.4564V46.6667ZM9.28238 46.6667H23.2226V51.3333H9.28238V46.6667ZM153.332 37.3333H167.272V42H153.332V37.3333ZM106.864 37.3333H120.804V42H106.864V37.3333ZM149.852 37.3333L148.028 42H126.052L124.25 37.3333H149.852ZM85.1605 37.3333C86.7698 38.6472 88.1525 40.233 89.2065 42H46.4564V37.3333H85.1605ZM9.28238 37.3333H23.2226V42H9.28238V37.3333ZM135.765 28L137.068 31.7718L138.371 28H167.272V32.6667H153.332V28.3738L151.745 32.6667H122.334L120.804 28.3738V32.6667H106.864V28H135.765ZM9.28238 28H23.2226V32.6667H9.28238V28ZM89.2065 28C88.1412 29.767 86.7585 31.3527 85.1605 32.6667H46.4564V28H89.2065ZM167.272 18.6667V23.3333H139.981L141.624 18.6667H167.272ZM132.523 18.6667L134.167 23.3333H106.864V18.6667H132.523ZM91.5299 18.6667C91.5299 20.2864 91.2919 21.8495 90.8726 23.3333H74.3369V18.6667H91.5299ZM46.4564 18.6667H60.3967V23.3333H46.4564V18.6667ZM9.28238 18.6667H23.2226V23.3333H9.28238V18.6667ZM129.305 9.33333L130.914 14H97.5707V9.33333H129.305ZM176.554 9.33333V14H143.188L144.866 9.33333H176.554ZM89.5692 9.33333C90.4305 10.7718 91.0992 12.3463 91.5186 14H37.1516V9.33333H89.5692ZM-0.0224609 9.33333H32.5048V14H-0.0224609V9.33333ZM126.041 0L127.684 4.66667H97.5593V0H126.041ZM176.565 0V4.66667H146.475L148.084 0H176.565ZM74.2462 0C79.1197 0 83.5511 1.76699 86.8831 4.66667H37.1629V0H74.2462ZM-0.0111274 0H32.5161V4.66667H-0.0111274V0Z" fill="#444C61"/>
</g>
<defs>
<clipPath id="clip0_1_1295">
<rect width="176.577" height="70" fill="white"/>
</clipPath>
</defs>
</svg>
