<svg width="115" height="85" viewBox="0 0 115 85" fill="none" xmlns="http://www.w3.org/2000/svg">
<g clip-path="url(#clip0_1_1364)">
<path d="M114.198 82.3106C114.198 83.5492 113.292 84.3806 112.219 84.3806V84.373C111.116 84.3805 110.227 83.5492 110.227 82.3109C110.227 81.073 111.116 80.2439 112.219 80.2439C113.292 80.2436 114.198 81.0727 114.198 82.3106ZM115 82.3106C115 80.6108 113.685 79.6241 112.219 79.6241C110.743 79.6241 109.428 80.6108 109.428 82.3106C109.428 84.0094 110.743 85 112.219 85C113.685 85 115 84.0094 115 82.3106ZM111.758 82.5379H112.056L112.746 83.7542H113.503L112.739 82.4867C113.134 82.4584 113.459 82.2696 113.459 81.7358C113.459 81.0727 113.003 80.8595 112.232 80.8595H111.116V83.7542H111.757V82.5379M111.758 82.0478V81.3509H112.204C112.447 81.3509 112.778 81.3706 112.778 81.6678C112.778 81.9913 112.607 82.0478 112.32 82.0478H111.758Z" fill="#444C61"/>
<path d="M96.2701 67.503L99.7378 77.026H92.695L96.2701 67.503ZM92.5563 63.7951L84.5649 84.1201H90.2079L91.4719 80.5287H100.929L102.125 84.1201H108.251L100.2 63.7925L92.5563 63.7951ZM76.5123 84.1276H82.2375V63.7888L76.5114 63.7875L76.5123 84.1276ZM36.7675 63.7875L31.991 79.9076L27.4153 63.7888L21.238 63.7875L27.773 84.1276H36.0209L42.6085 63.7875H36.7675ZM59.9092 68.2165H62.3698C65.9396 68.2165 68.2484 69.8252 68.2484 74.0003C68.2484 78.1763 65.9396 79.7854 62.3698 79.7854H59.9092V68.2165ZM54.2322 63.7875V84.1276H63.5137C68.4588 84.1276 70.0736 83.3025 71.8195 81.4513C73.0528 80.1516 73.8505 77.2993 73.8505 74.1813C73.8505 71.3214 73.1755 68.7722 71.9985 67.1838C69.8779 64.3429 66.8231 63.7875 62.2641 63.7875H54.2322ZM0 63.7593V84.1276H5.77356V68.6618L10.2471 68.6632C11.7284 68.6632 12.7843 69.0337 13.4976 69.7986C14.4023 70.7659 14.7717 72.3274 14.7717 75.1837V84.1276H20.3663V72.874C20.3663 64.8422 15.2665 63.7593 10.2766 63.7593H0ZM45.0181 63.7875L45.0203 84.1276H50.7429V63.7875H45.0181Z" fill="#444C61"/>
<path d="M15.3863 23.2883C15.3863 23.2883 22.7497 12.3825 37.4521 11.2543V7.29768C21.1674 8.61053 7.06543 22.4557 7.06543 22.4557C7.06543 22.4557 15.0525 45.6333 37.4521 47.7555V43.5499C21.0142 41.4741 15.3863 23.2883 15.3863 23.2883ZM37.4521 35.1861V39.0376C25.0287 36.8142 21.5803 23.8506 21.5803 23.8506C21.5803 23.8506 27.5453 17.2174 37.4521 16.1417V20.368C37.4446 20.368 37.4394 20.3657 37.4331 20.3657C32.2335 19.7393 28.1716 24.6153 28.1716 24.6153C28.1716 24.6153 30.4483 32.8238 37.4521 35.1861ZM37.4521 0V7.29768C37.9302 7.26089 38.4082 7.22969 38.8889 7.21327C57.4029 6.5869 69.466 22.4557 69.466 22.4557C69.466 22.4557 55.6111 39.3673 41.1767 39.3673C39.8538 39.3673 38.6153 39.2442 37.4521 39.0372V43.5499C38.4468 43.6767 39.4782 43.7513 40.5544 43.7513C53.9865 43.7513 63.7003 36.8651 73.1062 28.7151C74.6656 29.9688 81.0501 33.0189 82.3625 34.3541C73.4193 41.8702 52.5766 47.9289 40.7602 47.9289C39.6212 47.9289 38.5273 47.8596 37.4521 47.7555V54.0967H88.5068V0H37.4521ZM37.4521 16.1417V11.2543C37.9253 11.2211 38.402 11.1958 38.8889 11.1804C52.2023 10.7606 60.9367 22.6649 60.9367 22.6649C60.9367 22.6649 51.5027 35.8174 41.3874 35.8174C39.9317 35.8174 38.6268 35.5825 37.4521 35.1861V20.368C42.6351 20.9967 43.6779 23.2949 46.7939 28.5092L53.7241 22.6432C53.7241 22.6432 48.6652 15.9831 40.1372 15.9831C39.2102 15.9828 38.3231 16.0481 37.4521 16.1417Z" fill="#444C61"/>
</g>
<defs>
<clipPath id="clip0_1_1364">
<rect width="115" height="85" fill="white"/>
</clipPath>
</defs>
</svg>
