<svg width="32" height="32" viewBox="0 0 32 32" fill="none" xmlns="http://www.w3.org/2000/svg">
<path d="M21.6013 10.3987C23.7365 12.5338 27.1982 12.5338 29.3333 10.3987L21.6013 2.66669C19.4662 4.80182 19.4662 8.26354 21.6013 10.3987Z" stroke="#08c7a2" stroke-width="1.5" stroke-linecap="round" stroke-linejoin="round"/>
<path d="M21.3335 10.6667L19.3335 12.6667" stroke="#08c7a2" stroke-width="1.5" stroke-linecap="round" stroke-linejoin="round"/>
<path d="M19.7763 17.3347C20.5792 16.5317 20.9805 16.1303 20.9805 15.6315C20.9805 15.1325 20.5792 14.7312 19.7763 13.9283L18.0731 12.225C17.2701 11.4221 16.8687 11.0207 16.3699 11.0207C15.8711 11.0207 15.4696 11.4221 14.6667 12.225L9.05823 17.8335C7.64726 19.2445 7.64726 21.5321 9.05823 22.9431C10.4692 24.3541 12.7568 24.3541 14.1679 22.9431L19.7763 17.3347Z" stroke="#08c7a2" stroke-width="1.5" stroke-linecap="round" stroke-linejoin="round"/>
<path d="M20.625 22.4751L22.475 20.6251C23.3472 19.753 23.7832 19.317 24.325 19.317C24.8669 19.317 25.303 19.753 26.1752 20.6251L28.0252 22.4751C28.8973 23.3472 29.3333 23.7832 29.3333 24.3251C29.3333 24.867 28.8973 25.3031 28.0252 26.1752L26.1752 28.0252C25.303 28.8974 24.8669 29.3334 24.325 29.3334C23.7832 29.3334 23.3472 28.8974 22.475 28.0252L20.625 26.1752C19.7529 25.3031 19.3169 24.867 19.3169 24.3251C19.3169 23.7832 19.7529 23.3472 20.625 22.4751Z" stroke="#08c7a2" stroke-width="1.5" stroke-linecap="round" stroke-linejoin="round"/>
<path d="M3.97466 5.82487L5.82469 3.97485C6.69681 3.10274 7.13286 2.66669 7.67472 2.66669C8.21658 2.66669 8.65264 3.10274 9.52474 3.97485L11.3748 5.82487C12.2469 6.69699 12.6829 7.13305 12.6829 7.6749C12.6829 8.21677 12.2469 8.65282 11.3748 9.52493L9.52474 11.375C8.65264 12.2471 8.21658 12.6831 7.67472 12.6831C7.13286 12.6831 6.69681 12.2471 5.82469 11.375L3.97466 9.52493C3.10256 8.65282 2.6665 8.21677 2.6665 7.6749C2.6665 7.13305 3.10256 6.69699 3.97466 5.82487Z" stroke="#08c7a2" stroke-width="1.5" stroke-linecap="round" stroke-linejoin="round"/>
<path d="M21.3332 21.3334L18.6665 18.6667M13.3332 13.3334L10.6665 10.6667" stroke="#08c7a2" stroke-width="1.5" stroke-linecap="round" stroke-linejoin="round"/>
</svg>

